C:\GBW_MyPrograms\PredSimResults\Vitruvian_man\IG_v25ms_QR.mot
version=1
nRows=12
nColumns=35
inDegrees=yes
endheader
                time	         pelvis_tilt	           pelvis_tx	           pelvis_ty	       hip_flexion_r	        knee_angle_r	       ankle_angle_r	         mtp_angle_r	       hip_flexion_l	        knee_angle_l	       ankle_angle_l	         mtp_angle_l	    lumbar_extension	          arm_flex_r	          arm_flex_l	        elbow_flex_r	        elbow_flex_l	hamstrings_r/activation	bifemsh_r/activation	glut_max_r/activation	iliopsoas_r/activation	rect_fem_r/activation	  vasti_r/activation	gastroc_r/activation	 soleus_r/activation	tib_ant_r/activation	hamstrings_l/activation	bifemsh_l/activation	glut_max_l/activation	iliopsoas_l/activation	rect_fem_l/activation	  vasti_l/activation	gastroc_l/activation	 soleus_l/activation	tib_ant_l/activation	
          0.73961590	        -11.56894628	          1.83290777	          1.00758467	         28.27779907	        -16.80947051	          9.21910618	          2.64680553	         30.21344903	         -7.77354172	          1.89210413	          1.29944453	        -15.70875552	          1.45308755	          1.45308783	         60.02591169	         60.02591078	          0.36827474	          0.42916227	          0.11099760	          0.14418557	          0.14987765	          0.06363319	          0.06308668	          0.06176887	          0.84620055	          0.83362533	          0.54036528	          0.14982767	          0.22660035	          0.09040038	          0.05000000	          0.08941067	          0.07959848	          0.48806163	
          0.74701206	        -11.71982423	          1.84946756	          1.00052846	         29.26792896	        -17.04441890	          8.92063451	          2.50671270	         31.03871024	         -8.67487774	          2.29281633	          1.28781869	        -15.93378011	          1.72359703	          1.72359730	         58.86620054	         58.86619968	          0.32785970	          0.38206534	          0.33704364	          0.12836243	          0.13342984	          0.18994672	          0.05616345	          0.05499026	          0.89699164	          0.81289865	          0.48106476	          0.13338535	          0.20173288	          0.08047970	          0.05000000	          0.07959861	          0.07086334	          0.47493824	
          0.75440822	        -11.81891455	          1.86655850	          0.99291655	         30.33394073	        -18.57090163	          7.69941315	          2.31650332	         31.96040713	        -10.53158244	          2.25382950	          1.20703273	        -16.02100789	          2.20001431	          2.20001458	         58.00063194	         58.00063113	          0.39234838	          0.34013690	          0.55597987	          0.11427573	          0.11878705	          0.24865575	          0.05000000	          0.05000000	          0.93100936	          0.74417559	          0.42827197	          0.12584303	          0.17959440	          0.07164773	          0.05000000	          0.07086333	          0.06308669	          0.64833584	
          0.76180437	        -11.86028853	          1.88428462	          0.98484079	         31.32814869	        -21.32107195	          6.91907987	          2.03593864	         32.97796306	        -13.49968418	          2.02567199	          1.17694237	        -15.96692308	          2.88006132	          2.88006157	         57.42733550	         57.42733473	          0.34929146	          0.30280975	          0.70261410	          0.10173494	          0.10575117	          0.49678140	          0.05000000	          0.05000000	          0.82883895	          0.66250860	          0.38127274	          0.17475908	          0.15988543	          0.06378500	          0.05616347	          0.06308668	          0.05616346	          0.62146239	
          0.76920053	        -11.84964953	          1.90269700	          0.97653957	         31.96212194	        -24.36723080	          7.15076796	          1.63660228	         34.06498408	        -17.36727470	          2.08742119	          0.96011708	        -15.77432388	          3.75449671	          3.75449695	         57.14536832	         57.14536760	          0.31095969	          0.26957894	          0.80082351	          0.09057039	          0.09414588	          0.66296547	          0.30945646	          0.13244613	          0.73788088	          0.58980388	          0.33943128	          0.44728854	          0.14233936	          0.05678514	          0.05000000	          0.05616345	          0.05000000	          0.74647152	
          0.77659669	        -11.82160909	          1.92160871	          0.96845773	         32.18206335	        -27.00557048	          8.65744389	          1.25732797	         35.18329131	        -21.47720639	          2.75296428	          0.81814162	        -15.45206297	          4.82642036	          4.82642059	         57.15103796	         57.15103729	          0.27683449	          0.23999493	          0.86660001	          0.08063105	          0.08381416	          0.70582207	          0.27549623	          0.11791129	          0.65690469	          0.52507789	          0.30218156	          0.62981724	          0.12671882	          0.05055345	          0.05000000	          0.05000000	          0.05000000	          0.66455258	
          0.78399285	        -11.80158127	          1.94069419	          0.96106340	         32.23892001	        -29.47675712	         10.79010961	          1.14361136	         36.35068894	        -25.75302805	          4.18769713	          0.57097281	        -15.03616251	          6.10650872	          6.10650893	         57.44760450	         57.44760387	          0.24645425	          0.21365752	          0.91065433	          0.07178248	          0.07461627	          0.62836406	          0.25932006	          0.10497152	          0.58481495	          0.46745503	          0.26901969	          0.75206725	          0.11281250	          0.05000014	          0.23230410	          0.19341397	          0.26418346	          0.59162355	
          0.79138901	        -11.83762220	          1.95985543	          0.95454333	         32.31074647	        -31.91009319	         12.99248200	          1.25062618	         37.46098848	        -29.87981757	          6.01833838	          0.43596178	        -14.49363626	          7.58352034	          7.58352053	         58.03799386	         58.03799328	          0.21940798	          0.19021041	          0.94016005	          0.06390496	          0.06642776	          0.68880689	          0.34386100	          0.10935963	          0.52063645	          0.41615579	          0.23949705	          0.83394513	          0.10043228	          0.05000000	          0.30770658	          0.17218843	          0.23519156	          0.52669787	
          0.79878517	        -11.92722110	          1.97925143	          0.94892944	         32.30762954	        -34.13238779	         14.98094382	          1.56351294	         38.30985594	        -33.43001282	          7.47483400	          0.30592615	        -13.81194544	          9.22223822	          9.22223839	         58.92350419	         58.92350366	          0.23433815	          0.16933643	          0.95992174	          0.05689193	          0.05913788	          0.61321616	          0.38976886	          0.22467920	          0.46350100	          0.37048621	          0.21321428	          0.88878348	          0.08941069	          0.05000000	          0.45487883	          0.15329222	          0.28204084	          0.46889723	
          0.80618133	        -12.06552477	          1.99899544	          0.94421724	         32.15414437	        -36.01407945	         16.58641669	          2.07214763	         38.79209619	        -36.29476469	          8.81492419	          0.45911045	        -12.98710386	         10.99152867	         10.99152882	         60.10372752	         60.10372703	          0.24185998	          0.15075319	          0.97315728	          0.05064852	          0.05264800	          0.54592087	          0.44743417	          0.27708911	          0.41263568	          0.32982849	          0.18981581	          0.92551188	          0.07959862	          0.05000000	          0.57868957	          0.18597718	          0.35810223	          0.41743972	
          0.81357749	        -12.24516862	          2.01911359	          0.94040985	         31.82168277	        -37.52341400	         17.84338780	          2.75554779	         38.89240395	        -38.48367265	         10.06244734	          1.01604642	        -12.03076551	         12.86987579	         12.86987593	         61.57835967	         61.57835923	          0.29749636	          0.13420930	          0.98202188	          0.05000000	          0.05000000	          0.48601067	          0.49525805	          0.33120888	          0.36735240	          0.34369840	          0.16898513	          0.95011101	          0.07086334	          0.05000000	          0.58814439	          0.22566127	          0.42196052	          0.37162924	
          0.82097365	        -12.44224582	          2.03961070	          0.93750998	         31.27570589	        -38.64536514	         18.78964334	          3.59631921	         38.65170790	        -40.10465120	         11.17078235	          1.90544527	        -10.97692360	         14.83777615	         14.83777628	         63.34787990	         63.34787950	          0.28785355	          0.11948097	          0.98795902	          0.05000000	          0.05000000	          0.43267510	          0.54558699	          0.37487312	          0.32703858	          0.32690976	          0.15044044	          0.96658647	          0.06308669	          0.05000000	          0.72415646	          0.26643981	          0.48674753	          0.33084607	
